<?xml version="1.0" encoding="UTF-8"?>
<svg xmlns="http://www.w3.org/2000/svg" viewBox="0 0 960 540" width="960" height="540">
  <defs>
    <linearGradient id="sky-m_cover3" x1="0" y1="0" x2="0" y2="1">
      <stop offset="0%" stop-color="#f4d8a4"/>
      <stop offset="100%" stop-color="#c2956b"/>
    </linearGradient>
    <linearGradient id="ground-m_cover3" x1="0" y1="0" x2="0" y2="1">
      <stop offset="0%" stop-color="#a8754a"/>
      <stop offset="100%" stop-color="#8a5a35"/>
    </linearGradient>
  </defs>
  <rect width="960" height="540" fill="url(#sky-m_cover3)"/>
  
  <!-- back mountain -->
  <polygon points="0,360 160,260 280,300 420,220 560,290 720,240 880,300 960,280 960,540 0,540" fill="#a8754a" opacity="0.7"/>
  <!-- front mountain -->
  <polygon points="0,420 120,340 260,400 400,330 540,410 700,350 840,400 960,380 960,540 0,540" fill="url(#ground-m_cover3)"/>
  <!-- foreground silhouettes -->
  <path d="M 0 460 Q 240 440 480 460 T 960 460 L 960 540 L 0 540 Z" fill="#8a5a35" opacity="0.85"/>
</svg>
